<svg width="254" height="114" viewBox="0 0 254 114" fill="none" xmlns="http://www.w3.org/2000/svg">
<path d="M175.1 39.569C175.1 39.569 171.926 19.421 147.017 19.421C127.973 19.421 117.14 31.082 117.14 47.228C117.14 63.305 127.973 74.966 144.947 74.966C161.507 74.966 165.233 63.65 165.233 63.65V74H174.203V46.814H145.016V52.679H165.233C165.233 52.679 164.198 68.135 146.327 68.135C134.045 68.135 126.593 59.027 126.593 47.228C126.593 35.36 134.045 26.252 147.017 26.252C164.267 26.252 165.854 42.329 165.854 42.329L175.1 39.569ZM204.314 24.872C213.56 24.872 215.492 33.29 215.492 33.29L224.048 30.806C224.048 30.806 220.322 19.421 204.038 19.421C192.653 19.421 188.513 24.872 188.513 29.426C188.513 34.325 193.274 35.705 193.274 35.705H182.234V40.88H190.79V74H199.07V40.88H212.732V35.705H198.656C198.656 35.705 196.586 33.842 196.586 30.806C196.586 27.149 199.553 24.872 204.314 24.872ZM217.845 40.88H226.401V61.028C226.401 70.619 231.438 74.966 239.649 74.966C248.136 74.966 251.793 69.446 251.793 69.446L250.137 63.305C250.137 63.305 248.067 68.825 241.374 68.825C236.958 68.825 234.681 66.134 234.681 60.131V40.88H250.413V35.705H234.681V21.491L226.746 27.011V35.705H217.845V40.88Z" fill="#F4EBE8"/>
<path d="M15.091 71L48 14L80.909 71H15.091Z" stroke="#F4EBE8" stroke-width="10"/>
<line x1="5.20947" y1="38.6743" x2="90.0467" y2="38.6743" stroke="#FFFC31" stroke-width="14"/>
</svg>
